<svg xmlns="http://www.w3.org/2000/svg" xmlns:xlink="http://www.w3.org/1999/xlink" width="500" zoomAndPan="magnify" viewBox="0 0 375 374.999991" height="500" preserveAspectRatio="xMidYMid meet" version="1.2"><g id="b165fa2285"><rect x="0" width="375" y="0" height="374.999991" style="fill:#ffffff;fill-opacity:1;stroke:none;"/><rect x="0" width="375" y="0" height="374.999991" style="fill:#0c2950;fill-opacity:1;stroke:none;"/><path style=" stroke:none;fill-rule:evenodd;fill:#ffffff;fill-opacity:1;" d="M 237.925781 171.058594 C 247 171.058594 254.359375 178.410156 254.359375 187.492188 C 254.359375 196.574219 247 203.925781 237.925781 203.925781 C 228.839844 203.925781 221.484375 196.574219 221.484375 187.492188 C 221.476562 178.417969 228.832031 171.058594 237.925781 171.058594 M 187.5 171.058594 C 196.582031 171.058594 203.933594 178.410156 203.933594 187.492188 C 203.933594 196.574219 196.582031 203.925781 187.5 203.925781 C 178.417969 203.925781 171.058594 196.574219 171.058594 187.492188 C 171.066406 178.417969 178.417969 171.058594 187.5 171.058594 Z M 137.082031 171.058594 C 146.167969 171.058594 153.523438 178.410156 153.523438 187.492188 C 153.523438 196.574219 146.167969 203.925781 137.082031 203.925781 C 128.007812 203.925781 120.648438 196.574219 120.648438 187.492188 C 120.640625 178.417969 128.007812 171.058594 137.082031 171.058594 Z M 103.398438 277.601562 L 142.757812 268.234375 C 156.007812 275.589844 171.273438 279.785156 187.5 279.785156 C 212.976562 279.785156 236.050781 269.449219 252.75 252.75 C 269.441406 236.058594 279.773438 212.984375 279.773438 187.5 C 279.773438 162.015625 269.441406 138.941406 252.75 122.25 C 236.050781 105.550781 212.976562 95.214844 187.5 95.214844 C 162.015625 95.214844 138.933594 105.550781 122.242188 122.25 C 105.550781 138.941406 95.214844 162.015625 95.214844 187.5 C 95.214844 207.324219 101.464844 225.691406 112.109375 240.734375 Z M 333.160156 305.566406 L 293.125 265.523438 C 309.265625 243.707031 318.808594 216.714844 318.808594 187.5 C 318.808594 151.242188 304.109375 118.410156 280.339844 94.648438 C 256.582031 70.890625 223.757812 56.191406 187.5 56.191406 C 151.234375 56.191406 118.410156 70.890625 94.648438 94.648438 C 70.890625 118.410156 56.191406 151.242188 56.191406 187.5 C 56.191406 223.757812 70.890625 256.582031 94.648438 280.351562 C 100.359375 286.058594 106.507812 291.167969 113.101562 295.707031 L 113.535156 296.007812 L 114.351562 296.566406 L 114.410156 296.609375 L 114.851562 296.898438 L 115.292969 297.183594 L 115.398438 297.257812 L 115.734375 297.484375 L 116.183594 297.765625 L 116.625 298.050781 L 116.734375 298.117188 L 117.074219 298.332031 L 117.523438 298.617188 L 117.976562 298.898438 L 118.074219 298.957031 L 118.425781 299.175781 L 118.875 299.449219 L 119.324219 299.726562 L 119.425781 299.785156 L 119.773438 299.992188 L 120.226562 300.273438 L 120.683594 300.542969 L 120.773438 300.601562 L 121.132812 300.816406 L 121.589844 301.082031 L 122.050781 301.351562 L 122.140625 301.410156 L 122.507812 301.617188 L 122.976562 301.875 L 123.433594 302.132812 L 123.523438 302.191406 L 123.898438 302.398438 L 124.367188 302.660156 L 124.832031 302.910156 L 124.917969 302.957031 L 125.292969 303.167969 L 125.765625 303.417969 L 126.234375 303.660156 L 126.316406 303.707031 L 126.699219 303.910156 L 127.175781 304.148438 L 127.640625 304.398438 L 127.726562 304.441406 L 128.117188 304.640625 L 128.589844 304.882812 L 129.066406 305.125 L 129.148438 305.167969 L 129.550781 305.359375 L 130.023438 305.589844 L 130.507812 305.824219 L 130.582031 305.867188 L 130.984375 306.058594 L 131.464844 306.285156 L 131.941406 306.507812 L 132.015625 306.542969 L 132.425781 306.734375 L 132.917969 306.957031 L 133.398438 307.183594 L 133.464844 307.207031 L 133.882812 307.390625 L 134.375 307.609375 L 134.867188 307.824219 L 134.933594 307.859375 L 135.359375 308.042969 L 135.851562 308.25 L 136.351562 308.464844 L 136.410156 308.492188 L 136.839844 308.675781 L 137.339844 308.882812 L 137.832031 309.082031 L 137.890625 309.109375 L 138.332031 309.285156 L 138.824219 309.484375 L 139.316406 309.675781 L 139.375 309.699219 L 139.824219 309.867188 L 140.316406 310.058594 L 140.816406 310.25 L 140.867188 310.273438 L 141.316406 310.441406 L 141.824219 310.632812 L 142.324219 310.816406 L 142.367188 310.832031 L 142.824219 311 L 143.332031 311.183594 C 157.140625 316.117188 172.015625 318.808594 187.515625 318.808594 C 216.734375 318.808594 243.726562 309.257812 265.535156 293.117188 L 305.582031 333.160156 C 273.332031 359.324219 232.25 375 187.5 375 C 83.949219 375 0 291.050781 0 187.5 C 0 83.949219 83.949219 0 187.5 0 C 291.050781 0 375 83.941406 375 187.5 C 375 232.242188 359.308594 273.324219 333.160156 305.566406 Z M 333.160156 305.566406 "/></g></svg>